<?xml version="1.0" standalone="no"?>
<!DOCTYPE svg PUBLIC "-//W3C//DTD SVG 20010904//EN"
 "http://www.w3.org/TR/2001/REC-SVG-20010904/DTD/svg10.dtd">
<svg version="1.0" xmlns="http://www.w3.org/2000/svg"
 width="1616.000000pt" height="1616.000000pt" viewBox="0 0 1616.000000 1616.000000"
 preserveAspectRatio="xMidYMid meet">
<metadata>
Created by potrace 1.14, written by Peter Selinger 2001-2017
</metadata>
<g transform="translate(0.000000,1616.000000) scale(0.100000,-0.100000)"
fill="#000000" stroke="none">
<path d="M12915 10744 c0 -174 -3 -298 -9 -301 -5 -3 -25 -7 -45 -9 -20 -1
-78 -5 -128 -8 -51 -4 -110 -9 -130 -11 -71 -9 -171 -24 -208 -31 -11 -3 -36
-7 -55 -10 -19 -3 -53 -10 -75 -16 -22 -5 -48 -12 -57 -14 -10 -2 -26 -6 -36
-8 -88 -20 -257 -76 -370 -122 -112 -47 -285 -133 -294 -148 -4 -6 -8 -8 -8
-4 0 12 -179 -110 -275 -188 -232 -187 -426 -433 -561 -712 -80 -165 -75 -154
-114 -272 -29 -90 -74 -288 -84 -375 -17 -138 -20 -185 -20 -312 -1 -79 -5
-143 -9 -143 -5 0 -6 -4 -3 -9 3 -5 8 -58 11 -118 3 -59 7 -119 10 -132 2 -13
7 -53 10 -88 3 -36 7 -68 9 -72 3 -3 7 -27 11 -51 3 -25 17 -88 31 -140 14
-52 27 -104 29 -116 21 -93 194 -473 235 -514 3 -3 25 -34 49 -70 87 -128 182
-233 336 -375 46 -42 144 -115 242 -179 92 -60 323 -185 369 -199 11 -3 62
-22 114 -42 131 -51 331 -110 410 -121 19 -3 39 -9 45 -14 7 -6 14 -8 16 -5 3
2 22 0 44 -5 22 -5 63 -12 90 -15 28 -4 64 -9 80 -12 47 -7 240 -24 285 -24 8
0 24 -2 35 -4 20 -4 20 -11 20 -315 0 -171 2 -316 6 -321 3 -6 155 -8 384 -7
l380 3 0 320 c0 313 0 320 20 322 11 1 67 4 125 7 108 7 139 10 225 23 28 4
62 7 78 8 15 0 27 3 27 7 0 5 3 7 8 6 22 -6 278 54 393 92 110 37 252 93 289
113 19 10 43 21 53 23 10 2 24 7 31 13 6 5 49 29 96 53 72 38 211 123 245 150
6 4 50 39 98 77 108 84 191 163 271 256 91 106 116 139 116 153 0 6 4 12 10
12 5 0 17 15 26 33 9 17 20 34 23 37 36 29 218 433 235 522 2 13 9 34 14 48 5
14 10 28 11 33 0 4 1 8 2 10 0 1 2 9 4 17 1 8 8 40 14 70 32 154 31 149 48
305 10 90 10 478 0 575 -13 126 -28 216 -47 290 -5 19 -11 46 -14 60 -11 58
-65 223 -98 300 -140 326 -327 584 -573 789 -84 70 -216 165 -275 197 -19 10
-37 22 -40 25 -3 3 -26 16 -52 28 -27 13 -50 27 -54 32 -3 5 -12 9 -21 9 -8 0
-29 10 -46 22 -18 13 -33 22 -35 20 -1 -1 -24 7 -50 18 -132 60 -377 143 -457
156 -16 3 -43 9 -60 14 -16 5 -57 14 -90 19 -33 6 -76 13 -95 17 -19 3 -48 7
-65 9 -16 2 -48 6 -70 9 -55 7 -220 19 -272 19 -24 1 -44 6 -44 11 -1 6 -2
142 -3 301 l-1 290 -385 3 -385 2 0 -296z m0 -2641 c1 -1179 -3 -1730 -10
-1735 -32 -23 -435 31 -530 71 -11 5 -40 15 -65 22 -56 16 -109 38 -226 94
-256 125 -460 315 -605 567 -36 63 -82 163 -88 190 -1 4 -9 25 -18 45 -39 93
-90 300 -108 433 -28 214 -26 550 4 695 5 22 9 47 9 55 0 8 7 42 16 75 10 33
19 67 21 75 12 54 42 143 66 197 15 35 25 63 21 63 -4 0 -2 4 3 8 6 4 26 38
45 77 19 38 50 91 68 118 17 27 32 51 32 53 0 3 11 16 25 30 14 14 25 29 25
33 0 14 155 166 229 225 78 63 216 148 304 189 140 65 358 122 516 133 30 2
55 5 57 7 2 1 49 4 106 5 l103 3 0 -1728z m1040 1712 c28 -3 64 -8 80 -11 17
-3 44 -7 60 -9 49 -7 125 -25 200 -48 39 -11 73 -20 78 -19 4 1 7 -2 7 -8 0
-5 8 -10 17 -10 21 0 175 -74 233 -113 99 -66 189 -139 267 -216 45 -45 79
-81 76 -81 -3 0 3 -8 14 -17 24 -23 128 -179 165 -249 80 -155 157 -387 174
-524 3 -19 7 -46 9 -60 27 -143 25 -505 -4 -687 -4 -29 -6 -53 -3 -53 2 0 0
-6 -5 -12 -5 -7 -10 -26 -11 -41 -3 -39 -38 -177 -69 -267 -110 -321 -328
-600 -600 -769 -142 -88 -373 -181 -513 -207 -14 -3 -33 -7 -43 -10 -10 -3
-32 -7 -50 -10 -250 -32 -347 -38 -348 -21 -1 6 -2 787 -3 1735 l-1 1723 110
-5 c60 -3 133 -8 160 -11z"/>
<path d="M0 8074 l0 -2902 385 0 c385 1 385 1 386 22 0 12 1 498 2 1081 l2
1060 485 2 c502 1 633 6 790 28 19 2 53 7 75 10 44 6 73 11 120 21 17 4 41 8
55 10 42 5 130 30 230 63 120 40 132 45 254 107 119 59 143 73 170 97 11 9 25
17 32 17 7 0 14 3 16 8 2 4 26 23 54 42 100 69 229 188 329 304 51 59 152 206
180 261 9 16 20 37 25 45 30 47 127 295 146 373 2 9 6 27 9 40 8 33 27 129 31
157 15 113 18 166 18 310 0 91 -3 192 -7 225 -4 33 -9 80 -12 105 -3 25 -6 52
-8 60 -15 61 -19 80 -28 115 -6 22 -11 47 -13 55 -3 14 -6 24 -24 70 -3 8 -6
17 -6 20 -4 23 -61 150 -68 150 -4 0 -8 7 -8 15 0 17 -95 168 -149 235 -33 42
-176 187 -232 236 -37 33 -199 144 -209 144 -5 0 -15 6 -22 13 -31 29 -218
114 -348 157 -195 65 -362 99 -610 126 -135 14 -287 17 -1117 19 l-933 2 0
-2903z m1815 2232 c133 -11 187 -18 253 -32 15 -3 36 -7 47 -9 69 -12 98 -20
176 -45 78 -26 246 -103 259 -119 3 -3 17 -12 32 -20 69 -36 268 -249 268
-288 0 -7 3 -13 8 -13 4 0 13 -15 21 -32 8 -18 22 -51 32 -73 18 -39 45 -129
54 -176 3 -13 7 -35 10 -49 14 -72 18 -138 16 -260 -1 -121 -6 -195 -11 -195
-1 0 -3 -9 -4 -20 -6 -48 -19 -105 -39 -170 -12 -38 -20 -73 -19 -77 1 -5 -2
-8 -8 -8 -5 0 -10 -7 -10 -17 0 -16 -73 -157 -94 -180 -6 -6 -22 -28 -36 -48
-65 -96 -295 -295 -339 -295 -6 0 -11 -5 -11 -10 0 -6 -3 -9 -7 -8 -5 1 -30
-8 -58 -21 -27 -12 -59 -26 -70 -31 -22 -10 -99 -34 -102 -32 -2 0 -17 -4 -35
-9 -43 -13 -66 -18 -108 -24 -19 -3 -45 -8 -57 -10 -12 -3 -41 -7 -65 -10 -24
-3 -59 -8 -78 -10 -89 -12 -297 -18 -665 -19 l-400 -1 -2 1150 c-1 633 0 1155
1 1160 4 11 913 12 1041 1z"/>
<path d="M4819 10971 c-3 -16 -5 -5778 -1 -5787 2 -8 112 -12 390 -12 384 0
387 0 402 22 8 11 13 23 11 25 -1 2 1 7 6 10 8 6 204 318 245 391 11 19 25 42
32 50 7 8 36 56 66 105 30 50 56 92 59 95 3 3 12 15 19 28 27 49 37 66 45 76
21 28 137 219 137 227 0 5 4 9 9 9 5 0 11 8 14 18 4 9 25 47 49 84 110 172
218 350 218 358 0 5 6 13 13 17 6 4 21 26 32 47 11 22 25 44 30 50 6 6 28 40
49 76 21 36 54 88 72 117 19 28 34 56 34 61 0 6 4 12 8 14 5 2 28 37 53 78 24
41 49 81 56 88 7 7 13 20 13 28 0 8 5 14 10 14 6 0 10 6 10 14 0 8 3 16 8 18
4 2 14 15 22 29 8 14 76 123 150 243 74 119 142 228 150 244 8 15 18 29 23 30
4 2 7 10 7 18 0 8 5 14 10 14 6 0 10 4 10 9 0 5 47 84 105 176 58 92 105 168
105 170 0 2 258 417 267 430 5 6 32 51 62 100 30 50 69 113 86 140 18 28 100
160 183 295 84 135 156 250 162 257 5 7 10 15 10 18 0 3 8 18 19 33 10 15 52
81 92 147 100 165 120 188 110 131 -2 -10 -2 -43 1 -169 2 -53 -1 -97 -5 -97
-5 0 -5 -5 -1 -11 6 -10 8 -89 4 -114 -1 -5 -2 -14 -1 -19 7 -32 5 -126 -2
-126 -4 0 -4 -8 0 -17 10 -22 10 -94 0 -110 -4 -6 -4 -14 0 -16 10 -6 9 -129
0 -145 -4 -6 -4 -13 0 -15 10 -6 9 -129 0 -145 -4 -6 -4 -13 0 -15 10 -6 9
-129 0 -145 -4 -6 -4 -13 0 -15 10 -6 9 -129 0 -145 -4 -6 -4 -13 0 -15 10 -6
9 -129 0 -145 -4 -6 -4 -13 0 -15 10 -6 9 -129 0 -145 -4 -6 -4 -13 0 -15 10
-6 9 -129 0 -145 -4 -6 -4 -13 0 -15 5 -3 7 -40 5 -84 -1 -43 -3 -82 -3 -88 0
-5 2 -45 3 -88 2 -42 -1 -77 -5 -77 -4 0 -4 -8 0 -17 5 -10 7 -61 6 -113 -1
-52 -2 -121 -2 -152 0 -32 -1 -83 -1 -113 0 -30 0 -66 0 -80 1 -71 1 -232 0
-282 0 -32 1 -91 3 -131 1 -39 -2 -72 -6 -72 -4 0 -4 -8 0 -17 10 -22 10 -94
0 -110 -4 -6 -4 -14 0 -16 10 -6 9 -129 0 -145 -4 -6 -4 -13 0 -15 10 -6 9
-129 0 -145 -4 -6 -4 -13 0 -15 10 -6 9 -129 0 -145 -4 -6 -4 -13 0 -15 5 -3
7 -58 6 -124 -2 -65 -3 -144 -3 -175 0 -32 0 -83 0 -113 0 -30 0 -66 0 -80 1
-31 1 -215 0 -252 0 -16 1 -53 3 -83 l2 -55 383 -2 382 -1 0 2902 0 2903 -397
1 c-390 0 -433 -1 -433 -17 0 -5 -73 -125 -161 -267 -89 -142 -211 -338 -270
-434 -60 -96 -113 -180 -119 -187 -5 -7 -10 -15 -10 -19 0 -4 -11 -22 -25 -40
-14 -18 -25 -35 -25 -37 0 -2 -58 -97 -129 -210 -70 -113 -131 -211 -135 -218
-3 -8 -24 -41 -46 -74 -22 -33 -47 -75 -55 -92 -8 -18 -19 -33 -24 -33 -5 0
-11 -8 -14 -17 -4 -10 -16 -34 -29 -54 -13 -19 -39 -62 -58 -93 -19 -32 -42
-68 -50 -81 -21 -33 -102 -163 -120 -194 -9 -14 -32 -51 -51 -81 -28 -43 -201
-319 -272 -434 -7 -11 -42 -68 -79 -128 -38 -60 -68 -113 -68 -118 0 -6 -3
-10 -7 -10 -5 0 -20 -21 -36 -48 -15 -26 -32 -54 -37 -62 -6 -8 -75 -121 -155
-250 -80 -129 -148 -239 -152 -245 -5 -5 -14 -22 -22 -37 -8 -16 -18 -28 -23
-28 -4 0 -8 -4 -8 -9 0 -6 -28 -55 -62 -110 -35 -56 -67 -109 -73 -119 -5 -9
-20 -32 -32 -49 -13 -17 -23 -34 -23 -37 0 -3 -19 -35 -42 -70 -42 -64 -93
-146 -133 -212 -27 -45 -288 -464 -289 -464 -1 0 -1 1023 -1 2273 1 1249 -1
2279 -3 2288 -3 15 -42 16 -383 16 -208 0 -380 -3 -380 -6z"/>
</g>
</svg>
